2021.12.13  15:00 --- 19:30

```python
(AI) D:\AI\wav2lip>python inference.py --checkpoint_path D:\AI\wav2lip\checkpoints\wav2lip.pth --face D:\AI\tests\video\test1.mp4 --audio D:\AI\te
sts\audio\test1.wav
Using cpu for inference.
Reading video frames...
Number of frames available for inference: 211
(80, 562)
Length of mel chunks: 196
  0%|                                                                                                                     | 0/13 [00:34<?, ?it/s]
Recovering from OOM error; New batch size: 8                                                                              | 0/13 [00:00<?, ?it/s]
100%|█████████████████████████████████████████████████████████████████████████████████████████████████████████| 25/25 [4:13:02<00:00, 607.29s/it]
Load checkpoint from: D:\AI\wav2lip\checkpoints\wav2lip.pth███████████████████████████████████████████████████| 25/25 [4:13:02<00:00, 400.84s/it]
Model loaded
100%|██████████████████████████████████████████████████████████████████████████████████████████████████████████| 2/2 [4:13:58<00:00, 7619.14s/it]
ffmpeg version 4.3.2-2021-02-27-essentials_build-www.gyan.dev Copyright (c) 2000-2021 the FFmpeg developers
  built with gcc 10.2.0 (Rev6, Built by MSYS2 project)
  configuration: --enable-gpl --enable-version3 --enable-static --disable-w32threads --disable-autodetect --enable-fontconfig --enable-iconv --ena
ble-gnutls --enable-libxml2 --enable-gmp --enable-lzma --enable-zlib --enable-libsrt --enable-libssh --enable-libzmq --enable-avisynth --enable-sd
l2 --enable-libwebp --enable-libx264 --enable-libx265 --enable-libxvid --enable-libaom --enable-libopenjpeg --enable-libvpx --enable-libass --enab
le-libfreetype --enable-libfribidi --enable-libvidstab --enable-libvmaf --enable-libzimg --enable-amf --enable-cuda-llvm --enable-cuvid --enable-f
fnvcodec --enable-nvdec --enable-nvenc --enable-d3d11va --enable-dxva2 --enable-libmfx --enable-libgme --enable-libopenmpt --enable-libopencore-am
rwb --enable-libmp3lame --enable-libtheora --enable-libvo-amrwbenc --enable-libgsm --enable-libopencore-amrnb --enable-libopus --enable-libspeex -
-enable-libvorbis --enable-librubberband
  libavutil      56. 51.100 / 56. 51.100
  libavcodec     58. 91.100 / 58. 91.100
  libavformat    58. 45.100 / 58. 45.100
  libavdevice    58. 10.100 / 58. 10.100
  libavfilter     7. 85.100 /  7. 85.100
  libswscale      5.  7.100 /  5.  7.100
  libswresample   3.  7.100 /  3.  7.100
  libpostproc    55.  7.100 / 55.  7.100
Guessed Channel Layout for Input Stream #0.0 : stereo
Input #0, wav, from 'D:\AI\tests\audio\test1.wav':
  Metadata:
    encoder         : Lavf58.29.100
  Duration: 00:00:07.02, bitrate: 1536 kb/s
    Stream #0:0: Audio: pcm_s16le ([1][0][0][0] / 0x0001), 48000 Hz, stereo, s16, 1536 kb/s
Input #1, avi, from 'temp/result.avi':
  Metadata:
    encoder         : Lavf58.76.100
  Duration: 00:00:06.88, start: 0.000000, bitrate: 9306 kb/s
    Stream #1:0: Video: mpeg4 (Simple Profile) (DIVX / 0x58564944), yuv420p, 1080x1920 [SAR 1:1 DAR 9:16], 9336 kb/s, 28.48 fps, 28.50 tbr, 28.48
tbn, 28483 tbc
Stream mapping:
  Stream #1:0 -> #0:0 (mpeg4 (native) -> h264 (libx264))
  Stream #0:0 -> #0:1 (pcm_s16le (native) -> aac (native))
Press [q] to stop, [?] for help
[libx264 @ 000001669e046380] -qscale is ignored, -crf is recommended.
[libx264 @ 000001669e046380] using SAR=1/1
[libx264 @ 000001669e046380] using cpu capabilities: MMX2 SSE2Fast SSSE3 SSE4.2 AVX FMA3 BMI2 AVX2
[libx264 @ 000001669e046380] profile High, level 4.0, 4:2:0, 8-bit
[libx264 @ 000001669e046380] 264 - core 161 r3048 b86ae3c - H.264/MPEG-4 AVC codec - Copyleft 2003-2021 - http://www.videolan.org/x264.html - opti
ons: cabac=1 ref=3 deblock=1:0:0 analyse=0x3:0x113 me=hex subme=7 psy=1 psy_rd=1.00:0.00 mixed_ref=1 me_range=16 chroma_me=1 trellis=1 8x8dct=1 cq
m=0 deadzone=21,11 fast_pskip=1 chroma_qp_offset=-2 threads=18 lookahead_threads=3 sliced_threads=0 nr=0 decimate=1 interlaced=0 bluray_compat=0 c
onstrained_intra=0 bframes=3 b_pyramid=2 b_adapt=1 b_bias=0 direct=1 weightb=1 open_gop=0 weightp=2 keyint=250 keyint_min=25 scenecut=40 intra_ref
resh=0 rc_lookahead=40 rc=crf mbtree=1 crf=23.0 qcomp=0.60 qpmin=0 qpmax=69 qpstep=4 ip_ratio=1.40 aq=1:1.00
Output #0, mp4, to 'results/result_voice.mp4':
  Metadata:
    encoder         : Lavf58.45.100
    Stream #0:0: Video: h264 (libx264) (avc1 / 0x31637661), yuv420p(progressive), 1080x1920 [SAR 1:1 DAR 9:16], q=-1--1, 28.50 fps, 14592 tbn, 28.
50 tbc
    Metadata:
      encoder         : Lavc58.91.100 libx264
    Side data:
      cpb: bitrate max/min/avg: 0/0/0 buffer size: 0 vbv_delay: N/A
    Stream #0:1: Audio: aac (LC) (mp4a / 0x6134706D), 48000 Hz, stereo, fltp, 128 kb/s
    Metadata:
      encoder         : Lavc58.91.100 aac
frame=  196 fps= 50 q=-1.0 Lsize=    4143kB time=00:00:07.01 bitrate=4835.5kbits/s speed=1.79x
video:4025kB audio:111kB subtitle:0kB other streams:0kB global headers:0kB muxing overhead: 0.177457%
[libx264 @ 000001669e046380] frame I:1     Avg QP:21.57  size: 39266
[libx264 @ 000001669e046380] frame P:139   Avg QP:22.21  size: 24133
[libx264 @ 000001669e046380] frame B:56    Avg QP:24.40  size: 12984
[libx264 @ 000001669e046380] consecutive B-frames: 59.7%  6.1%  1.5% 32.7%
[libx264 @ 000001669e046380] mb I  I16..4: 26.2% 73.2%  0.6%
[libx264 @ 000001669e046380] mb P  I16..4:  3.1% 12.2%  0.1%  P16..4: 43.7%  6.9%  3.3%  0.0%  0.0%    skip:30.6%
[libx264 @ 000001669e046380] mb B  I16..4:  1.4%  5.4%  0.0%  B16..8: 40.2%  3.6%  0.5%  direct: 2.6%  skip:46.2%  L0:59.3% L1:36.5% BI: 4.3%
[libx264 @ 000001669e046380] 8x8 transform intra:78.9% inter:81.9%
[libx264 @ 000001669e046380] coded y,uvDC,uvAC intra: 29.8% 28.1% 0.7% inter: 14.9% 7.5% 0.0%
[libx264 @ 000001669e046380] i16 v,h,dc,p: 35% 27% 21% 17%
[libx264 @ 000001669e046380] i8 v,h,dc,ddl,ddr,vr,hd,vl,hu: 25% 21% 46%  1%  1%  1%  1%  1%  1%
[libx264 @ 000001669e046380] i4 v,h,dc,ddl,ddr,vr,hd,vl,hu: 29% 20% 17%  5%  8%  8%  5%  6%  3%
[libx264 @ 000001669e046380] i8c dc,h,v,p: 63% 19% 17%  2%
[libx264 @ 000001669e046380] Weighted P-Frames: Y:0.0% UV:0.0%
[libx264 @ 000001669e046380] ref P L0: 74.0%  9.9% 11.7%  4.5%
[libx264 @ 000001669e046380] ref B L0: 88.9%  7.9%  3.2%
[libx264 @ 000001669e046380] ref B L1: 96.1%  3.9%
[libx264 @ 000001669e046380] kb/s:4793.69
[aac @ 000001669e43e1c0] Qavg: 353.483

```

